<svg xmlns="http://www.w3.org/2000/svg" viewBox="0 0 64 64" width="64" height="64"><metadata><rdf:RDF xmlns:rdf="http://www.w3.org/1999/02/22-rdf-syntax-ns#" xmlns:dc="http://purl.org/dc/elements/1.1/"><rdf:Description><dc:creator>RealFaviconGenerator</dc:creator><dc:source>https://realfavicongenerator.net</dc:source></rdf:Description></rdf:RDF></metadata><title>Duskvow</title><rect width="64" height="64" rx="12" fill="#0A0A12"></rect><g transform="translate(16 10) scale(1.375)">
    <path d="M12 2 C 8 8, 4 12, 4 18 C 4 25, 8 30, 12 30 C 16 30, 20 25, 20 18 C 20 14, 17 12, 15 8 C 14 11, 13 12, 12 11 C 12 8, 13 5, 12 2 Z" fill="#C84B11"></path>
    <path d="M12 14 C 10 17, 9 19, 9 22 C 9 26, 10 28, 12 28 C 14 28, 15 26, 15 22 C 15 19, 13 17, 12 14 Z" fill="#FFD700"></path>
  </g></svg>